<!DOCTYPE svg PUBLIC "-//W3C//DTD SVG 20010904//EN" "http://www.w3.org/TR/2001/REC-SVG-20010904/DTD/svg10.dtd">
<svg version="1.0" xmlns="http://www.w3.org/2000/svg" width="969px" height="146px" viewBox="0 0 9690 1460" preserveAspectRatio="xMidYMid meet">
<g id="layer101" fill="#ffffff" stroke="none">
 <path d="M0 1185 c0 -238 2 -275 15 -275 8 0 15 7 15 15 0 8 5 15 10 15 6 0 10 -66 10 -178 0 -219 -4 -212 134 -212 82 0 96 3 119 23 l27 23 0 272 0 272 25 0 c24 0 25 -2 25 -70 0 -63 2 -70 20 -70 19 0 20 -7 20 -140 0 -87 4 -140 10 -140 6 0 10 -6 10 -12 0 -15 45 -38 75 -38 11 0 35 13 53 29 32 30 32 30 32 130 0 56 5 112 12 128 l12 28 4 -42 c2 -28 8 -43 17 -43 9 0 15 -15 17 -47 3 -46 4 -48 33 -48 27 0 30 4 33 33 3 28 7 32 33 32 24 0 29 4 29 25 0 21 5 25 31 25 22 0 32 -5 36 -20 3 -11 9 -20 14 -20 5 0 9 -31 9 -70 l0 -70 100 0 100 0 2 172 c3 155 5 173 21 176 16 3 17 -19 17 -346 0 -341 0 -350 20 -355 16 -4 20 -14 20 -46 0 -40 1 -41 60 -71 l59 -30 4 -87 3 -88 2 87 2 88 60 30 c58 29 60 32 60 70 0 24 6 42 15 47 12 7 15 47 17 233 3 225 3 225 26 228 12 2 22 10 22 18 0 27 20 14 21 -13 0 -16 1 -71 2 -123 l2 -95 54 -3 c30 -2 57 1 60 7 3 5 6 115 6 245 l0 236 23 0 22 0 0 -195 c0 -123 4 -195 10 -195 6 0 10 -18 10 -40 0 -30 4 -40 16 -40 9 0 38 -22 65 -49 40 -40 48 -56 52 -92 l4 -44 1 42 c2 35 9 49 50 91 26 27 55 52 65 55 12 4 17 17 17 42 0 19 5 35 10 35 6 0 10 62 10 165 0 138 2 165 15 165 12 0 15 -23 17 -122 l3 -123 117 -3 118 -3 2 173 c2 107 7 173 13 173 6 0 11 -86 13 -232 l2 -233 100 0 100 0 0 106 c0 95 2 105 18 102 15 -3 17 -20 20 -171 1 -100 6 -167 12 -167 6 0 10 -7 10 -16 0 -8 19 -24 44 -35 37 -16 66 -19 160 -18 104 1 117 3 126 20 6 11 21 19 35 19 l25 0 0 270 0 270 25 0 c24 0 25 -2 25 -65 0 -62 1 -65 24 -65 19 0 25 -6 28 -27 3 -24 8 -28 33 -28 25 0 30 4 33 28 2 15 9 27 18 27 11 0 14 -15 14 -65 0 -37 4 -65 10 -65 6 0 10 -11 10 -25 0 -26 13 -32 80 -37 l35 -3 -2 -292 -3 -292 36 -10 c20 -5 42 -18 50 -28 11 -14 14 -15 14 -3 1 10 4 9 10 -5 7 -17 9 -17 9 -2 1 9 4 17 7 17 10 0 34 -29 34 -42 0 -7 7 1 16 18 9 19 33 40 62 55 l47 24 3 208 2 207 53 0 c49 0 54 2 72 32 18 30 20 56 23 284 l3 252 37 6 c20 3 50 6 66 6 16 0 35 8 42 18 10 13 17 15 31 6 16 -10 18 -31 21 -214 3 -226 -2 -211 80 -251 33 -17 42 -27 42 -48 0 -20 2 -23 10 -11 8 13 10 12 10 -4 0 -15 3 -16 15 -6 11 9 15 9 15 1 0 -7 5 -9 10 -6 6 3 10 18 10 32 0 18 4 24 14 20 8 -3 16 -3 18 1 2 5 20 18 40 30 24 15 39 33 43 52 5 22 12 30 28 30 12 0 31 7 41 15 11 8 35 15 53 15 26 0 33 -4 33 -20 0 -11 5 -20 10 -20 6 0 10 15 10 34 0 30 3 34 33 39 46 7 170 -3 185 -16 9 -7 16 -7 24 1 7 7 26 12 44 12 50 0 64 9 64 41 0 16 1 29 3 29 1 0 52 -18 112 -39 l110 -39 -1 -151 c0 -118 3 -151 13 -151 9 0 13 -17 13 -59 0 -43 4 -60 15 -65 11 -4 15 -24 16 -83 1 -57 3 -70 9 -48 4 17 8 53 9 80 1 47 5 54 54 103 31 31 62 52 75 52 21 0 22 -3 24 -143 l3 -142 47 -15 c26 -8 53 -23 60 -32 7 -10 42 -27 78 -38 64 -20 67 -20 187 -3 l122 17 7 31 c4 16 10 32 14 35 5 3 10 59 12 125 2 73 7 119 13 117 6 -1 10 -13 10 -27 0 -13 6 -30 13 -36 6 -7 12 -18 13 -23 0 -6 30 -26 67 -44 79 -39 140 -42 190 -12 18 11 40 20 48 20 9 0 18 9 21 20 3 11 12 20 19 20 10 0 14 13 14 40 0 38 2 40 30 40 l30 0 0 65 c0 58 2 65 20 65 18 0 20 7 20 85 l0 85 40 0 40 0 0 280 c0 180 4 280 10 280 6 0 10 -4 10 -10 0 -5 7 -18 17 -29 16 -19 16 -19 33 2 16 19 20 20 35 7 14 -11 16 -31 14 -130 -1 -64 1 -122 5 -128 4 -7 16 -12 27 -12 10 0 19 -7 19 -15 0 -9 -6 -12 -17 -8 -11 4 -14 3 -9 -5 4 -7 13 -12 19 -12 21 -1 55 -36 59 -60 7 -49 68 -48 68 1 0 25 30 59 52 59 10 0 18 5 18 10 0 6 -5 10 -12 10 -9 0 -9 3 1 13 10 10 15 8 27 -8 14 -19 15 -19 20 3 8 28 44 30 44 2 0 -11 14 -39 31 -63 17 -25 35 -60 39 -78 l8 -34 1 30 c1 17 10 43 21 60 17 26 20 27 25 10 4 -11 10 -29 14 -40 7 -17 8 -16 8 8 1 32 3 36 30 41 16 4 23 -4 32 -36 11 -34 10 -43 -3 -57 -20 -22 -20 -70 -1 -99 9 -12 36 -35 60 -52 l43 -30 57 52 c57 51 57 52 53 100 -6 53 6 56 16 4 8 -43 57 -86 96 -86 16 0 42 11 58 25 37 31 57 33 40 4 -11 -17 -10 -22 6 -35 11 -8 39 -14 63 -14 33 0 45 5 53 21 9 15 15 18 25 9 10 -8 15 -8 21 1 5 9 10 5 16 -11 6 -16 4 -28 -7 -40 -8 -9 -15 -25 -15 -35 0 -23 41 -77 79 -104 l29 -21 40 30 c23 16 49 41 58 55 14 22 15 29 2 57 -14 34 -19 161 -5 166 4 1 29 2 55 2 53 0 51 3 77 -97 4 -13 11 -20 20 -17 22 9 51 -60 72 -168 3 -15 9 -26 13 -23 11 7 16 -21 19 -100 2 -49 7 -72 17 -78 11 -6 14 -33 14 -122 0 -104 2 -116 20 -127 12 -8 20 -24 20 -40 0 -15 4 -30 10 -33 6 -4 10 7 10 26 0 17 7 37 16 43 12 10 15 34 15 134 -1 102 2 122 14 122 16 0 18 6 15 64 -1 21 4 67 11 102 10 48 17 64 29 64 10 0 38 19 64 42 43 37 47 44 41 72 -4 17 -9 55 -12 85 l-5 53 25 -18 c20 -16 24 -25 20 -52 -5 -29 0 -38 41 -77 25 -25 52 -45 60 -45 7 0 34 19 60 43 48 45 60 83 32 106 -10 9 -12 21 -5 49 4 20 6 54 2 74 -7 44 9 68 38 61 19 -5 20 -12 16 -67 -3 -33 -8 -73 -12 -89 -6 -23 -2 -33 31 -63 l38 -36 33 35 c31 35 32 38 26 100 -8 94 12 156 32 94 7 -22 7 -22 18 6 12 31 27 36 27 9 0 -28 11 -34 26 -14 11 14 13 4 14 -70 0 -90 21 -168 44 -168 24 0 87 -64 112 -113 14 -29 42 -65 62 -82 32 -27 42 -30 108 -30 65 0 76 3 111 31 50 40 83 105 83 165 0 32 8 61 25 90 13 24 27 63 31 87 11 72 27 63 20 -11 -7 -62 -6 -68 18 -92 32 -32 60 -32 91 0 21 20 25 34 25 87 0 59 2 64 41 104 23 23 46 53 53 65 7 15 22 25 39 27 l27 3 0 175 0 174 -4845 0 -4845 0 0 -275z"/>
 </g>

</svg>